<?xml version="1.0" encoding="UTF-8"?>
<svg xmlns="http://www.w3.org/2000/svg" xmlns:xlink="http://www.w3.org/1999/xlink" width="24px" height="24px" viewBox="0 0 24 24" version="1.1">
<path d="M 14.125 3.875 C 15.484375 3.875 16.847656 3.875 18.25 3.875 C 18.25 9.238281 18.25 14.601562 18.25 20.125 C 16.890625 20.125 15.527344 20.125 14.125 20.125 C 14.125 18.019531 14.125 15.917969 14.125 13.75 C 13.464844 13.75 12.804688 13.75 12.125 13.75 C 11.898438 13.523438 11.984375 13.183594 11.984375 12.878906 C 11.984375 12.726562 11.984375 12.578125 11.984375 12.421875 C 11.984375 12.261719 11.984375 12.101562 11.984375 11.9375 C 11.984375 11.777344 11.984375 11.617188 11.984375 11.453125 C 11.984375 11.304688 11.984375 11.152344 11.984375 10.996094 C 11.984375 10.855469 11.984375 10.714844 11.984375 10.570312 C 12 10.25 12 10.25 12.125 10.125 C 12.785156 10.125 13.445312 10.125 14.125 10.125 C 14.125 8.0625 14.125 6 14.125 3.875 Z M 6.25 3.875 C 7.652344 3.875 9.054688 3.875 10.5 3.875 C 10.5 6.0625 10.5 8.246094 10.5 10.5 C 10.707031 10.542969 10.914062 10.582031 11.125 10.625 C 11.472656 10.769531 11.472656 10.769531 11.75 11 C 11.816406 11.386719 11.816406 11.386719 11.796875 11.828125 C 11.792969 11.972656 11.789062 12.121094 11.785156 12.269531 C 11.75 12.625 11.75 12.625 11.625 12.75 C 10.160156 12.984375 9.074219 12.40625 7.8125 11.765625 C 7.621094 11.671875 7.429688 11.578125 7.234375 11.484375 C 6.964844 11.351562 6.695312 11.21875 6.425781 11.082031 C 5.996094 10.867188 5.574219 10.679688 5.125 10.5 C 5.125 9.882812 5.125 9.261719 5.125 8.625 C 5.496094 8.625 5.867188 8.625 6.25 8.625 C 6.25 7.058594 6.25 5.488281 6.25 3.875 Z M 5.125 14.25 C 6.878906 14.007812 8.117188 14.765625 9.636719 15.5625 C 10.035156 15.769531 10.4375 15.96875 10.84375 16.167969 C 11.144531 16.320312 11.449219 16.472656 11.75 16.625 C 11.753906 16.894531 11.753906 17.160156 11.757812 17.429688 C 11.757812 17.578125 11.761719 17.726562 11.761719 17.882812 C 11.75 18.25 11.75 18.25 11.625 18.375 C 11.433594 18.382812 11.246094 18.386719 11.054688 18.382812 C 10.953125 18.382812 10.847656 18.378906 10.742188 18.378906 C 10.660156 18.378906 10.582031 18.375 10.5 18.375 C 10.523438 18.5 10.546875 18.628906 10.570312 18.757812 C 10.492188 19.292969 10.441406 19.390625 10.0625 19.742188 C 9.230469 20.324219 8.335938 20.28125 7.375 20.125 C 6.96875 20.015625 6.742188 19.910156 6.429688 19.628906 C 5.984375 18.695312 6.179688 17.503906 6.25 16.5 C 5.878906 16.375 5.507812 16.253906 5.125 16.125 C 5.125 15.507812 5.125 14.886719 5.125 14.25 Z M 5.125 11.375 C 6.460938 11.285156 7.273438 11.527344 8.445312 12.148438 C 8.730469 12.292969 9.011719 12.4375 9.296875 12.582031 C 9.433594 12.652344 9.570312 12.722656 9.710938 12.796875 C 10.246094 13.058594 10.789062 13.28125 11.34375 13.492188 C 11.625 13.625 11.625 13.625 11.75 13.875 C 11.761719 14.125 11.765625 14.375 11.765625 14.625 C 11.765625 14.824219 11.765625 14.824219 11.765625 15.03125 C 11.75 15.375 11.75 15.375 11.625 15.625 C 10.203125 15.820312 9.183594 15.265625 7.953125 14.648438 C 7.761719 14.554688 7.570312 14.460938 7.378906 14.367188 C 6.875 14.125 6.375 13.875 5.875 13.625 C 5.628906 13.5 5.378906 13.378906 5.125 13.25 C 5.125 12.632812 5.125 12.011719 5.125 11.375 Z M 5.125 11.375 "/>
</svg>
