<?xml version="1.0" encoding="UTF-8"?>
<svg xmlns="http://www.w3.org/2000/svg" xmlns:xlink="http://www.w3.org/1999/xlink" width="24px" height="24px" viewBox="0 0 24 24" version="1.1">
<path d="M 12.503906 1.191406 C 12.582031 1.191406 12.664062 1.195312 12.742188 1.195312 C 12.933594 1.195312 13.128906 1.199219 13.320312 1.199219 C 13.222656 1.402344 13.109375 1.5625 12.964844 1.734375 C 12.914062 1.792969 12.867188 1.851562 12.816406 1.914062 C 12.710938 2.039062 12.605469 2.164062 12.5 2.285156 C 12.445312 2.351562 12.390625 2.414062 12.335938 2.480469 C 12.308594 2.511719 12.28125 2.542969 12.253906 2.578125 C 12.054688 2.8125 11.863281 3.050781 11.675781 3.292969 C 11.410156 3.636719 11.128906 3.96875 10.84375 4.296875 C 10.605469 4.566406 10.378906 4.839844 10.15625 5.113281 C 10 5.304688 9.84375 5.488281 9.6875 5.671875 C 9.492188 5.898438 9.304688 6.128906 9.121094 6.359375 C 8.910156 6.628906 8.6875 6.886719 8.46875 7.148438 C 8.292969 7.351562 8.121094 7.558594 7.949219 7.769531 C 7.75 8.015625 7.550781 8.253906 7.347656 8.492188 C 7.152344 8.71875 6.964844 8.949219 6.78125 9.179688 C 6.566406 9.445312 6.347656 9.707031 6.128906 9.96875 C 5.953125 10.171875 5.78125 10.378906 5.609375 10.589844 C 5.410156 10.832031 5.210938 11.074219 5.007812 11.3125 C 4.8125 11.539062 4.625 11.765625 4.441406 12 C 4.226562 12.265625 4.007812 12.527344 3.789062 12.785156 C 3.613281 12.992188 3.441406 13.199219 3.269531 13.410156 C 2.964844 13.785156 2.652344 14.152344 2.339844 14.519531 C 2.203125 14.386719 2.195312 14.332031 2.15625 14.148438 C 2.148438 14.097656 2.136719 14.046875 2.128906 13.996094 C 2.113281 13.914062 2.113281 13.914062 2.097656 13.832031 C 2.085938 13.78125 2.074219 13.730469 2.066406 13.679688 C 1.5625 11.109375 2.113281 8.3125 3.539062 6.121094 C 5.152344 3.742188 7.476562 1.972656 10.328125 1.390625 C 10.464844 1.367188 10.601562 1.34375 10.738281 1.320312 C 10.800781 1.308594 10.863281 1.296875 10.929688 1.289062 C 11.457031 1.203125 11.96875 1.183594 12.503906 1.191406 Z M 12.503906 1.191406 "/>
<path d="M 21.300781 17.699219 C 19.839844 20.085938 17.304688 21.527344 14.644531 22.183594 C 13.960938 22.332031 13.261719 22.332031 12.5625 22.332031 C 12.515625 22.332031 12.472656 22.332031 12.425781 22.332031 C 9.804688 22.324219 7.320312 21.433594 5.398438 19.621094 C 5.273438 19.511719 5.144531 19.402344 5.015625 19.296875 C 4.910156 19.191406 4.863281 19.09375 4.800781 18.960938 C 6.375 18.816406 7.953125 18.691406 9.53125 18.566406 C 9.730469 18.550781 9.929688 18.535156 10.128906 18.519531 C 12.132812 18.363281 14.136719 18.210938 16.140625 18.0625 C 16.328125 18.046875 16.515625 18.035156 16.703125 18.019531 C 16.75 18.015625 16.796875 18.011719 16.84375 18.007812 C 17.46875 17.960938 18.09375 17.914062 18.71875 17.863281 C 18.792969 17.859375 18.867188 17.851562 18.941406 17.847656 C 19.273438 17.820312 19.601562 17.792969 19.933594 17.765625 C 20.046875 17.757812 20.160156 17.75 20.273438 17.738281 C 20.320312 17.734375 20.371094 17.730469 20.421875 17.726562 C 20.714844 17.703125 21.003906 17.695312 21.300781 17.699219 Z M 21.300781 17.699219 "/>
<path d="M 18.179688 2.878906 C 18.867188 3.113281 19.460938 3.765625 19.980469 4.261719 C 20.058594 4.335938 20.058594 4.335938 20.140625 4.410156 C 20.363281 4.628906 20.539062 4.828125 20.699219 5.101562 C 20.664062 5.121094 20.628906 5.144531 20.59375 5.167969 C 19.734375 5.710938 19.734375 5.710938 18.882812 6.261719 C 18.144531 6.742188 17.402344 7.210938 16.664062 7.6875 C 16.015625 8.101562 15.363281 8.515625 14.71875 8.933594 C 14.316406 9.195312 13.914062 9.453125 13.507812 9.707031 C 13.175781 9.921875 12.84375 10.132812 12.511719 10.351562 C 12.066406 10.640625 11.617188 10.925781 11.167969 11.207031 C 10.835938 11.421875 10.503906 11.632812 10.171875 11.851562 C 9.734375 12.132812 9.300781 12.410156 8.863281 12.6875 C 8.441406 12.957031 8.019531 13.222656 7.601562 13.492188 C 7.539062 13.53125 7.476562 13.574219 7.414062 13.613281 C 7.222656 13.734375 7.03125 13.859375 6.839844 13.980469 C 5.003906 15.15625 5.003906 15.15625 4.171875 15.683594 C 4.070312 15.746094 3.972656 15.8125 3.871094 15.875 C 3.738281 15.960938 3.601562 16.046875 3.464844 16.132812 C 3.425781 16.15625 3.386719 16.183594 3.34375 16.210938 C 3.074219 16.378906 3.074219 16.378906 2.941406 16.378906 C 2.894531 16.296875 2.855469 16.210938 2.8125 16.125 C 2.789062 16.078125 2.765625 16.03125 2.742188 15.980469 C 2.699219 15.839844 2.699219 15.839844 2.734375 15.714844 C 2.839844 15.570312 2.953125 15.476562 3.09375 15.367188 C 3.183594 15.296875 3.183594 15.296875 3.273438 15.226562 C 3.304688 15.199219 3.339844 15.171875 3.371094 15.144531 C 3.578125 14.980469 3.78125 14.816406 3.984375 14.648438 C 4.027344 14.613281 4.070312 14.574219 4.113281 14.539062 C 4.414062 14.292969 4.710938 14.042969 5.007812 13.789062 C 5.261719 13.574219 5.515625 13.367188 5.773438 13.160156 C 5.957031 13.007812 6.136719 12.851562 6.320312 12.699219 C 6.585938 12.46875 6.855469 12.25 7.132812 12.039062 C 7.476562 11.769531 7.808594 11.488281 8.136719 11.203125 C 8.40625 10.96875 8.679688 10.738281 8.957031 10.515625 C 9.144531 10.359375 9.328125 10.203125 9.515625 10.046875 C 9.785156 9.8125 10.0625 9.589844 10.34375 9.367188 C 10.527344 9.21875 10.707031 9.066406 10.886719 8.914062 C 11.171875 8.667969 11.464844 8.429688 11.753906 8.191406 C 12.332031 7.722656 12.902344 7.25 13.46875 6.769531 C 13.71875 6.554688 13.976562 6.347656 14.230469 6.140625 C 14.417969 5.984375 14.605469 5.828125 14.789062 5.671875 C 15.082031 5.421875 15.375 5.179688 15.671875 4.9375 C 15.855469 4.785156 16.039062 4.632812 16.21875 4.476562 C 16.523438 4.21875 16.832031 3.96875 17.148438 3.726562 C 17.5 3.453125 17.839844 3.167969 18.179688 2.878906 Z M 18.179688 2.878906 "/>
<path d="M 22.800781 9.480469 C 22.996094 9.679688 22.984375 9.941406 23.015625 10.210938 C 23.03125 10.304688 23.03125 10.304688 23.042969 10.394531 C 23.136719 11.207031 23.15625 12.03125 23.039062 12.839844 C 23.003906 12.847656 22.96875 12.859375 22.929688 12.867188 C 22.285156 13.035156 21.644531 13.203125 21.003906 13.382812 C 20.410156 13.546875 19.816406 13.707031 19.222656 13.867188 C 18.894531 13.953125 18.566406 14.042969 18.238281 14.128906 C 18.109375 14.164062 17.980469 14.199219 17.851562 14.234375 C 17.785156 14.253906 17.722656 14.269531 17.65625 14.289062 C 16.421875 14.621094 15.183594 14.953125 13.949219 15.285156 C 13.886719 15.300781 13.820312 15.320312 13.753906 15.335938 C 13.625 15.371094 13.496094 15.40625 13.367188 15.441406 C 13.035156 15.53125 12.699219 15.621094 12.367188 15.710938 C 12.039062 15.800781 11.710938 15.886719 11.382812 15.976562 C 11.285156 16.003906 11.1875 16.027344 11.089844 16.054688 C 10.640625 16.175781 10.1875 16.292969 9.734375 16.410156 C 9.164062 16.558594 8.597656 16.707031 8.03125 16.867188 C 7.511719 17.011719 6.992188 17.148438 6.46875 17.289062 C 6.191406 17.363281 5.914062 17.441406 5.632812 17.515625 C 5.53125 17.542969 5.53125 17.542969 5.425781 17.574219 C 5.292969 17.609375 5.160156 17.644531 5.027344 17.679688 C 4.65625 17.78125 4.28125 17.871094 3.898438 17.941406 C 3.539062 17.484375 3.539062 17.484375 3.539062 17.28125 C 3.578125 17.265625 3.613281 17.25 3.652344 17.234375 C 4.742188 16.800781 5.828125 16.363281 6.914062 15.917969 C 7.90625 15.515625 8.894531 15.113281 9.886719 14.710938 C 9.933594 14.691406 9.984375 14.671875 10.039062 14.648438 C 10.289062 14.546875 10.542969 14.445312 10.796875 14.34375 C 11.324219 14.128906 11.851562 13.917969 12.378906 13.703125 C 12.429688 13.679688 12.484375 13.660156 12.539062 13.636719 C 13.546875 13.230469 14.558594 12.820312 15.566406 12.410156 C 16.074219 12.203125 16.582031 12 17.089844 11.792969 C 17.226562 11.738281 17.367188 11.679688 17.507812 11.625 C 17.550781 11.605469 17.597656 11.585938 17.644531 11.566406 C 17.917969 11.457031 18.195312 11.34375 18.46875 11.234375 C 19.910156 10.648438 21.355469 10.0625 22.800781 9.480469 Z M 22.800781 9.480469 "/>
</svg>
