<?xml version="1.0" encoding="UTF-8"?>
<svg xmlns="http://www.w3.org/2000/svg" xmlns:xlink="http://www.w3.org/1999/xlink" width="24px" height="24px" viewBox="0 0 24 24" version="1.1">


<path d="M 5.039062 4.78125 C 5.039062 4.601562 5.132812 4.511719 5.320312 4.511719 L 5.796875 4.511719 C 5.878906 4.511719 5.949219 4.535156 6.003906 4.582031 C 6.054688 4.632812 6.082031 4.699219 6.082031 4.78125 L 6.082031 17.605469 C 6.082031 17.785156 5.988281 17.875 5.796875 17.875 L 5.320312 17.875 C 5.132812 17.875 5.039062 17.785156 5.039062 17.605469 Z M 8.9375 17.875 C 8.765625 17.875 8.675781 17.816406 8.675781 17.695312 C 8.675781 17.644531 8.675781 17.605469 8.675781 17.589844 C 8.683594 17.566406 8.691406 17.539062 8.703125 17.515625 C 9.621094 15.367188 10.535156 13.234375 11.441406 11.109375 C 12.351562 8.980469 13.269531 6.839844 14.195312 4.691406 C 14.210938 4.644531 14.238281 4.601562 14.273438 4.566406 C 14.3125 4.523438 14.378906 4.503906 14.480469 4.503906 L 14.5625 4.503906 C 14.675781 4.503906 14.75 4.53125 14.777344 4.582031 C 14.808594 4.632812 14.835938 4.683594 14.859375 4.738281 C 15.746094 6.878906 16.652344 9.007812 17.578125 11.125 C 18.5 13.238281 19.410156 15.367188 20.304688 17.507812 L 20.296875 17.507812 C 20.300781 17.515625 20.3125 17.546875 20.324219 17.605469 C 20.335938 17.660156 20.339844 17.691406 20.339844 17.695312 C 20.339844 17.816406 20.257812 17.875 20.089844 17.875 Z M 10.109375 16.832031 L 18.910156 16.832031 L 14.507812 6.394531 Z M 10.109375 16.832031 "/>

</svg>
