<?xml version="1.0" encoding="UTF-8"?>
<svg xmlns="http://www.w3.org/2000/svg" xmlns:xlink="http://www.w3.org/1999/xlink" width="24px" height="24px" viewBox="0 0 24 24" version="1.1">
<g id="surface1">
<path fill="blue" d="M 0 0 C 8.042969 0 16.089844 0 24.378906 0 C 24.378906 7.796875 24.378906 15.589844 24.378906 23.621094 C 16.332031 23.621094 8.289062 23.621094 0 23.621094 C 0 15.828125 0 8.03125 0 0 Z M 11.28125 0.519531 C 11.253906 0.527344 11.226562 0.539062 11.199219 0.546875 C 10.320312 0.875 9.308594 1.46875 8.777344 2.261719 C 8.585938 2.238281 8.585938 2.238281 8.507812 2.191406 C 8.410156 2.148438 8.328125 2.152344 8.21875 2.15625 C 8.164062 2.15625 8.164062 2.15625 8.109375 2.15625 C 8.078125 2.160156 8.050781 2.160156 8.023438 2.160156 C 8.015625 2.136719 8.011719 2.113281 8.003906 2.085938 C 7.996094 2.054688 7.988281 2.023438 7.980469 1.992188 C 7.972656 1.960938 7.964844 1.929688 7.957031 1.898438 C 7.929688 1.8125 7.929688 1.8125 7.851562 1.78125 C 7.828125 1.769531 7.804688 1.761719 7.78125 1.75 C 7.777344 1.722656 7.773438 1.699219 7.769531 1.671875 C 7.742188 1.542969 7.667969 1.472656 7.582031 1.378906 C 7.5625 1.363281 7.546875 1.34375 7.53125 1.324219 C 7.039062 0.8125 6.414062 0.453125 5.691406 0.429688 C 4.996094 0.417969 4.324219 0.550781 3.640625 0.671875 C 3.480469 0.699219 3.316406 0.726562 3.152344 0.753906 C 3.171875 1.082031 3.234375 1.402344 3.292969 1.726562 C 3.308594 1.820312 3.324219 1.914062 3.34375 2.003906 C 3.351562 2.066406 3.363281 2.125 3.375 2.183594 C 3.378906 2.210938 3.382812 2.238281 3.390625 2.265625 C 3.414062 2.40625 3.414062 2.40625 3.460938 2.539062 C 3.472656 2.605469 3.484375 2.675781 3.492188 2.746094 C 3.515625 2.914062 3.550781 3.0625 3.613281 3.21875 C 3.640625 3.320312 3.648438 3.390625 3.632812 3.496094 C 3.570312 3.570312 3.515625 3.625 3.445312 3.683594 C 3.152344 3.933594 2.9375 4.164062 2.746094 4.5 C 2.699219 4.574219 2.65625 4.652344 2.609375 4.726562 C 2.59375 4.757812 2.59375 4.757812 2.578125 4.789062 C 2.492188 4.933594 2.402344 5.082031 2.3125 5.226562 C 2.277344 5.289062 2.238281 5.351562 2.199219 5.414062 C 2.175781 5.457031 2.152344 5.496094 2.128906 5.539062 C 2.09375 5.59375 2.058594 5.652344 2.023438 5.707031 C 2.003906 5.742188 1.984375 5.773438 1.964844 5.804688 C 1.921875 5.894531 1.898438 5.96875 1.886719 6.070312 C 2.0625 6.1875 2.230469 6.273438 2.433594 6.34375 C 2.480469 6.363281 2.527344 6.386719 2.570312 6.410156 C 2.570312 6.433594 2.570312 6.457031 2.570312 6.480469 C 2.761719 6.621094 2.96875 6.710938 3.1875 6.789062 C 3.234375 6.808594 3.28125 6.832031 3.324219 6.855469 C 3.324219 6.878906 3.324219 6.902344 3.324219 6.925781 C 3.402344 6.96875 3.476562 7.015625 3.554688 7.058594 C 3.578125 7.070312 3.597656 7.082031 3.621094 7.097656 C 3.78125 7.191406 3.933594 7.269531 4.121094 7.289062 C 4.25 7.304688 4.25 7.304688 4.285156 7.335938 C 4.765625 7.402344 5.257812 7.414062 5.726562 7.269531 C 5.761719 7.257812 5.800781 7.246094 5.839844 7.234375 C 5.988281 7.183594 6.132812 7.136719 6.273438 7.0625 C 6.289062 7.09375 6.289062 7.09375 6.304688 7.128906 C 6.371094 7.257812 6.449219 7.292969 6.582031 7.335938 C 6.757812 7.371094 6.929688 7.371094 7.105469 7.371094 C 7.171875 7.371094 7.171875 7.371094 7.238281 7.371094 C 7.285156 7.371094 7.285156 7.371094 7.335938 7.371094 C 7.335938 7.402344 7.332031 7.433594 7.332031 7.464844 C 7.292969 8.074219 7.257812 8.679688 7.269531 9.292969 C 7.230469 9.277344 7.1875 9.261719 7.148438 9.25 C 7 9.195312 6.847656 9.144531 6.699219 9.089844 C 6.636719 9.066406 6.570312 9.042969 6.507812 9.023438 C 6.414062 8.988281 6.320312 8.957031 6.226562 8.921875 C 6.199219 8.914062 6.171875 8.902344 6.140625 8.890625 C 5.980469 8.835938 5.820312 8.789062 5.652344 8.757812 C 5.574219 8.738281 5.511719 8.707031 5.441406 8.671875 C 5.257812 8.59375 5.078125 8.59375 4.882812 8.59375 C 4.851562 8.59375 4.820312 8.59375 4.789062 8.59375 C 4.644531 8.59375 4.515625 8.605469 4.378906 8.640625 C 4.261719 8.671875 4.1875 8.679688 4.070312 8.664062 C 4.042969 8.660156 4.015625 8.65625 3.988281 8.652344 C 3.910156 8.640625 3.910156 8.640625 3.84375 8.621094 C 3.472656 8.539062 2.976562 8.554688 2.640625 8.742188 C 2.609375 8.761719 2.578125 8.777344 2.542969 8.792969 C 2.085938 9.066406 1.792969 9.425781 1.644531 9.9375 C 1.539062 10.34375 1.570312 10.84375 1.769531 11.214844 C 2.105469 11.734375 2.457031 12.027344 3.046875 12.207031 C 3.292969 12.285156 3.53125 12.367188 3.765625 12.46875 C 3.960938 12.550781 4.164062 12.621094 4.363281 12.691406 C 4.410156 12.707031 4.453125 12.722656 4.5 12.738281 C 4.644531 12.789062 4.792969 12.839844 4.9375 12.890625 C 4.960938 12.898438 4.988281 12.910156 5.015625 12.917969 C 5.167969 12.972656 5.320312 13.023438 5.472656 13.078125 C 5.523438 13.09375 5.570312 13.113281 5.621094 13.128906 C 5.6875 13.152344 5.757812 13.175781 5.824219 13.199219 C 5.863281 13.210938 5.902344 13.226562 5.941406 13.238281 C 6.027344 13.273438 6.027344 13.273438 6.101562 13.269531 C 6.027344 13.402344 5.941406 13.519531 5.847656 13.636719 C 5.714844 13.808594 5.640625 13.953125 5.589844 14.160156 C 5.566406 14.160156 5.542969 14.160156 5.519531 14.160156 C 5.492188 14.222656 5.460938 14.28125 5.433594 14.34375 C 5.410156 14.394531 5.410156 14.394531 5.386719 14.449219 C 5.34375 14.53125 5.34375 14.53125 5.347656 14.605469 C 5.324219 14.605469 5.304688 14.605469 5.28125 14.605469 C 5.253906 14.667969 5.226562 14.734375 5.199219 14.796875 C 5.183594 14.832031 5.167969 14.867188 5.152344 14.902344 C 5.105469 15.015625 5.105469 15.015625 5.074219 15.136719 C 5.039062 15.257812 5.039062 15.257812 4.996094 15.359375 C 4.726562 15.996094 4.824219 16.773438 5.039062 17.417969 C 5.0625 17.417969 5.085938 17.417969 5.109375 17.417969 C 5.113281 17.4375 5.117188 17.453125 5.121094 17.472656 C 5.144531 17.566406 5.175781 17.65625 5.207031 17.746094 C 5.21875 17.777344 5.230469 17.808594 5.242188 17.84375 C 5.28125 17.929688 5.316406 17.96875 5.382812 18.035156 C 5.398438 18.085938 5.398438 18.085938 5.417969 18.136719 C 5.394531 18.132812 5.367188 18.125 5.34375 18.121094 C 5.246094 18.101562 5.160156 18.097656 5.0625 18.097656 C 5.03125 18.101562 4.996094 18.101562 4.960938 18.101562 C 4.929688 18.101562 4.894531 18.101562 4.859375 18.101562 C 4.824219 18.101562 4.789062 18.101562 4.75 18.101562 C 4.664062 18.101562 4.578125 18.101562 4.492188 18.101562 C 4.492188 18.125 4.492188 18.148438 4.492188 18.171875 C 4.472656 18.175781 4.453125 18.179688 4.429688 18.183594 C 3.945312 18.289062 3.59375 18.523438 3.316406 18.945312 C 3.136719 19.273438 3.074219 19.613281 3.070312 19.984375 C 3.070312 20.011719 3.070312 20.039062 3.070312 20.066406 C 3.074219 20.257812 3.117188 20.425781 3.1875 20.605469 C 3.210938 20.605469 3.234375 20.605469 3.257812 20.605469 C 3.261719 20.636719 3.265625 20.667969 3.273438 20.703125 C 3.390625 21.113281 3.828125 21.40625 4.164062 21.625 C 4.21875 21.660156 4.273438 21.699219 4.328125 21.734375 C 4.355469 21.75 4.382812 21.769531 4.410156 21.789062 C 4.507812 21.851562 4.605469 21.914062 4.699219 21.980469 C 4.742188 22.007812 4.785156 22.035156 4.828125 22.066406 C 4.949219 22.144531 5.066406 22.230469 5.183594 22.316406 C 5.582031 22.597656 6.109375 22.640625 6.582031 22.59375 C 6.734375 22.554688 6.859375 22.5 6.996094 22.421875 C 7.027344 22.40625 7.058594 22.386719 7.09375 22.367188 C 7.472656 22.140625 7.707031 21.867188 7.886719 21.460938 C 7.886719 21.429688 7.886719 21.394531 7.886719 21.359375 C 7.910156 21.359375 7.929688 21.359375 7.953125 21.359375 C 8.015625 21.179688 8.035156 21.023438 8.03125 20.835938 C 8.03125 20.808594 8.03125 20.785156 8.03125 20.757812 C 8.027344 20.5625 8.007812 20.382812 7.953125 20.195312 C 7.949219 20.167969 7.941406 20.144531 7.933594 20.121094 C 7.917969 20.066406 7.902344 20.007812 7.886719 19.953125 C 7.917969 19.972656 7.953125 19.992188 7.988281 20.011719 C 8.089844 20.0625 8.183594 20.101562 8.292969 20.128906 C 8.328125 20.140625 8.328125 20.140625 8.367188 20.148438 C 8.414062 20.160156 8.460938 20.171875 8.507812 20.183594 C 8.71875 20.242188 8.800781 20.359375 8.914062 20.539062 C 8.933594 20.5625 8.949219 20.589844 8.96875 20.617188 C 9.03125 20.710938 9.089844 20.800781 9.148438 20.894531 C 9.191406 20.960938 9.238281 21.03125 9.285156 21.101562 C 9.320312 21.15625 9.320312 21.15625 9.355469 21.210938 C 9.550781 21.515625 9.75 21.816406 9.949219 22.121094 C 10.003906 22.207031 10.058594 22.292969 10.117188 22.378906 C 10.453125 22.894531 10.792969 23.25 11.417969 23.402344 C 11.726562 23.464844 12.03125 23.433594 12.332031 23.335938 C 12.503906 23.289062 12.632812 23.296875 12.789062 23.382812 C 13.347656 23.523438 13.855469 23.351562 14.332031 23.074219 C 14.6875 22.855469 14.910156 22.429688 15.023438 22.042969 C 15.132812 21.511719 15.039062 20.984375 14.75 20.527344 C 14.691406 20.4375 14.632812 20.351562 14.570312 20.261719 C 14.527344 20.195312 14.480469 20.128906 14.4375 20.058594 C 14.402344 20.011719 14.402344 20.011719 14.371094 19.960938 C 14.261719 19.800781 14.15625 19.636719 14.050781 19.472656 C 14.035156 19.449219 14.023438 19.425781 14.007812 19.402344 C 13.992188 19.378906 13.976562 19.355469 13.960938 19.332031 C 13.921875 19.273438 13.882812 19.21875 13.839844 19.164062 C 13.765625 19.03125 13.777344 18.96875 13.816406 18.824219 C 13.871094 18.71875 13.871094 18.71875 13.9375 18.617188 C 13.964844 18.578125 13.988281 18.539062 14.015625 18.5 C 14.027344 18.480469 14.039062 18.460938 14.054688 18.441406 C 14.246094 18.125 14.40625 17.792969 14.539062 17.453125 C 14.550781 17.421875 14.5625 17.390625 14.574219 17.355469 C 14.726562 16.96875 14.753906 16.585938 14.75 16.171875 C 14.75 16.128906 14.75 16.089844 14.75 16.046875 C 14.75 15.847656 14.738281 15.660156 14.707031 15.460938 C 14.738281 15.464844 14.769531 15.464844 14.804688 15.464844 C 15.101562 15.464844 15.398438 15.46875 15.699219 15.46875 C 15.851562 15.46875 16.003906 15.46875 16.15625 15.46875 C 16.304688 15.472656 16.453125 15.472656 16.601562 15.472656 C 16.65625 15.472656 16.714844 15.472656 16.769531 15.472656 C 17.328125 15.480469 17.84375 15.390625 18.378906 15.222656 C 18.410156 15.214844 18.445312 15.203125 18.480469 15.191406 C 18.78125 15.101562 19.058594 14.960938 19.335938 14.8125 C 19.359375 14.800781 19.378906 14.789062 19.402344 14.777344 C 19.695312 14.617188 19.96875 14.4375 20.230469 14.230469 C 20.246094 14.214844 20.265625 14.199219 20.285156 14.183594 C 20.554688 13.96875 20.792969 13.738281 21.015625 13.472656 C 21.042969 13.441406 21.074219 13.410156 21.101562 13.375 C 21.609375 12.742188 22.042969 11.953125 22.207031 11.15625 C 22.214844 11.125 22.222656 11.089844 22.230469 11.054688 C 22.277344 10.851562 22.292969 10.667969 22.285156 10.457031 C 22.308594 10.457031 22.332031 10.457031 22.355469 10.457031 C 22.355469 10.410156 22.355469 10.410156 22.359375 10.367188 C 22.378906 10.078125 22.398438 9.792969 22.417969 9.507812 C 22.429688 9.359375 22.4375 9.214844 22.449219 9.066406 C 22.457031 8.925781 22.464844 8.78125 22.476562 8.640625 C 22.480469 8.585938 22.484375 8.53125 22.488281 8.476562 C 22.503906 8.207031 22.527344 7.945312 22.59375 7.679688 C 22.601562 7.59375 22.601562 7.59375 22.597656 7.515625 C 22.59375 7.078125 22.59375 7.078125 22.695312 6.933594 C 22.777344 6.867188 22.777344 6.867188 22.859375 6.816406 C 22.984375 6.714844 23.058594 6.570312 23.085938 6.40625 C 23.089844 6.332031 23.089844 6.253906 23.089844 6.179688 C 23.089844 6.136719 23.089844 6.136719 23.089844 6.089844 C 23.089844 5.996094 23.089844 5.902344 23.085938 5.808594 C 23.085938 5.742188 23.085938 5.675781 23.085938 5.609375 C 23.085938 5.4375 23.085938 5.265625 23.082031 5.09375 C 23.082031 4.917969 23.082031 4.742188 23.082031 4.566406 C 23.078125 4.222656 23.078125 3.875 23.074219 3.53125 C 23.050781 3.53125 23.027344 3.53125 23.003906 3.53125 C 23.003906 3.476562 23.003906 3.476562 23.003906 3.425781 C 22.960938 3.253906 22.878906 3.179688 22.730469 3.085938 C 22.707031 3.085938 22.6875 3.085938 22.664062 3.085938 C 22.664062 3.0625 22.664062 3.039062 22.664062 3.015625 C 22.511719 2.960938 22.390625 2.945312 22.230469 2.949219 C 22.175781 2.949219 22.175781 2.949219 22.121094 2.949219 C 22.050781 2.949219 21.976562 2.953125 21.90625 2.957031 C 21.746094 2.957031 21.640625 2.957031 21.523438 2.839844 C 21.480469 2.773438 21.433594 2.707031 21.394531 2.640625 C 21.28125 2.46875 21.136719 2.335938 20.992188 2.191406 C 20.964844 2.164062 20.933594 2.132812 20.902344 2.101562 C 20.679688 1.882812 20.453125 1.6875 20.195312 1.507812 C 20.164062 1.488281 20.132812 1.464844 20.101562 1.441406 C 19.96875 1.339844 19.96875 1.339844 19.816406 1.304688 C 19.816406 1.28125 19.816406 1.257812 19.816406 1.234375 C 19.679688 1.199219 19.679688 1.199219 19.542969 1.164062 C 19.542969 1.144531 19.542969 1.121094 19.542969 1.097656 C 19.523438 1.089844 19.503906 1.082031 19.480469 1.074219 C 19.285156 0.996094 19.089844 0.914062 18.898438 0.832031 C 18.347656 0.613281 17.777344 0.507812 17.1875 0.5 C 16.757812 0.488281 16.335938 0.464844 15.910156 0.433594 C 15.851562 0.425781 15.789062 0.421875 15.730469 0.417969 C 15.484375 0.398438 15.238281 0.378906 14.996094 0.359375 C 14.34375 0.308594 13.691406 0.265625 13.035156 0.261719 C 12.976562 0.257812 12.914062 0.257812 12.855469 0.257812 C 12.3125 0.25 11.792969 0.332031 11.28125 0.519531 Z M 11.28125 0.519531 "/>
<path fill="blue" d="M 20.820312 7.84375 C 20.949219 7.84375 21.074219 7.84375 21.203125 7.84375 C 21.449219 7.847656 21.695312 7.847656 21.941406 7.851562 C 21.921875 8.355469 21.894531 8.855469 21.851562 9.355469 C 21.84375 9.464844 21.835938 9.574219 21.828125 9.6875 C 21.800781 10.011719 21.777344 10.328125 21.691406 10.640625 C 21.664062 10.746094 21.648438 10.847656 21.632812 10.953125 C 21.609375 11.089844 21.582031 11.21875 21.53125 11.347656 C 21.507812 11.347656 21.484375 11.347656 21.460938 11.347656 C 21.457031 11.371094 21.453125 11.398438 21.449219 11.421875 C 21.378906 11.746094 21.253906 12.027344 21.082031 12.304688 C 21.0625 12.339844 21.042969 12.371094 21.023438 12.40625 C 20.648438 13.019531 20.648438 13.019531 20.398438 13.234375 C 20.378906 13.234375 20.355469 13.234375 20.332031 13.234375 C 20.332031 12.511719 20.332031 11.785156 20.332031 11.039062 C 20.09375 11.039062 19.855469 11.039062 19.613281 11.039062 C 19.285156 10.929688 19.011719 10.789062 18.789062 10.527344 C 18.769531 10.503906 18.753906 10.484375 18.734375 10.460938 C 18.429688 10.09375 18.390625 9.648438 18.410156 9.1875 C 18.433594 9.003906 18.480469 8.863281 18.582031 8.707031 C 18.59375 8.671875 18.609375 8.636719 18.621094 8.597656 C 18.699219 8.414062 18.851562 8.289062 18.996094 8.160156 C 19.011719 8.140625 19.03125 8.125 19.046875 8.105469 C 19.5 7.722656 20.269531 7.835938 20.820312 7.84375 Z M 20.820312 7.84375 "/>
</g>
</svg>
